<svg width="122" height="26" viewBox="0 0 122 26" fill="none" xmlns="http://www.w3.org/2000/svg">
<path d="M9.96 12.728H16.584C16.248 16.352 13.872 19.136 10.08 19.136C5.976 19.136 2.904 15.896 2.904 11.888C2.904 7.712 6.12 4.52 10.2 4.52C13.08 4.52 15.744 6.176 16.536 8.96H17.856C16.992 5.528 13.776 3.392 10.2 3.392C5.472 3.392 1.68 7.064 1.68 11.888C1.68 16.544 5.304 20.288 10.08 20.288C13.32 20.288 15.6 18.56 16.728 15.968L16.824 20H17.856V11.6H9.96V12.728ZM23.6379 5.672C24.1419 5.672 24.5259 5.288 24.5259 4.784C24.5259 4.28 24.1419 3.92 23.6379 3.92C23.1339 3.92 22.7499 4.28 22.7499 4.784C22.7499 5.288 23.1339 5.672 23.6379 5.672ZM23.0619 9.032V20H24.2379V9.032H23.0619ZM34.8666 8.744C33.1146 8.744 31.5546 9.368 30.5226 10.52V9.032H29.3706V20H30.5226V11.984C31.5066 10.592 33.0906 9.824 34.6986 9.824C36.8346 9.824 38.3226 11.144 38.3226 13.592V20H39.4746V13.544C39.4746 10.52 37.5786 8.744 34.8666 8.744ZM53.0632 9.032V10.52C51.9592 9.416 50.3992 8.744 48.6232 8.744C45.4552 8.744 43.0552 11.216 43.0552 14.456C43.0552 17.576 45.4552 20.096 48.6232 20.096C50.3992 20.096 51.9592 19.448 53.0632 18.344V20.792C53.0632 23.24 51.3832 24.728 48.8152 24.728C46.4872 24.728 44.9032 23.6 44.5432 21.944H43.3192C43.7512 24.248 45.8632 25.808 48.8152 25.808C52.1032 25.808 54.2152 23.912 54.2152 20.792V9.032H53.0632ZM48.7432 19.064C46.1272 19.064 44.2552 16.952 44.2552 14.456C44.2552 11.84 46.1272 9.776 48.7432 9.776C50.4472 9.776 52.0552 10.544 53.0632 12.008V16.856C52.0552 18.32 50.4472 19.064 48.7432 19.064ZM63.7059 8.744C60.4419 8.744 58.0899 11.288 58.0899 14.528C58.0899 17.744 60.4419 20.288 63.7539 20.288C66.1059 20.288 67.9539 19.184 68.6259 17.384H67.3299C66.7779 18.56 65.4579 19.232 63.7779 19.232C61.1619 19.232 59.4579 17.312 59.2899 14.888H69.0579C69.2979 11.384 67.1139 8.744 63.7059 8.744ZM63.7299 9.776C66.1299 9.776 67.8339 11.456 67.8819 14H59.3139C59.5299 11.624 61.2339 9.776 63.7299 9.776ZM74.2438 11.168V9.032H73.0918V20H74.2438V12.728C75.2038 10.928 76.8118 9.848 78.6838 9.824V8.72C76.8598 8.72 75.2518 9.656 74.2438 11.168ZM86.619 8.264C83.115 8.264 80.715 10.88 80.715 14.288C80.715 17.696 83.139 20.288 86.811 20.288C89.331 20.288 91.371 19.04 92.139 16.88H88.659C88.251 17.384 87.675 17.528 86.835 17.528C85.035 17.528 84.171 16.52 83.931 15.2H92.331C92.931 11.24 90.555 8.264 86.619 8.264ZM86.643 10.928C88.107 10.928 89.043 11.6 89.211 13.064H84.003C84.291 11.864 85.107 10.928 86.643 10.928ZM103.836 2.96V9.2C102.948 8.624 101.82 8.264 100.548 8.264C97.3796 8.264 94.8356 10.952 94.8356 14.264C94.8356 17.6 97.3796 20.288 100.548 20.288C101.82 20.288 102.948 19.928 103.836 19.352V20H106.98V2.96H103.836ZM101.028 17.432C99.2276 17.432 97.9796 15.992 97.9796 14.264C97.9796 12.56 99.2276 11.12 101.028 11.12C102.06 11.12 103.092 11.408 103.836 12.464V16.088C103.092 17.144 102.06 17.432 101.028 17.432ZM118.701 8.552V15.92C117.885 16.904 116.925 17.432 116.061 17.432C114.405 17.432 113.469 16.376 113.469 14.504V8.552H110.325V14.696C110.325 18.056 112.341 20.288 115.389 20.288C116.685 20.288 117.765 19.832 118.701 19.088V20H121.845V8.552H118.701Z" fill="#A058AE"/>
</svg>
